<?xml version="1.0" encoding="UTF-8" standalone="no"?>
<!DOCTYPE svg PUBLIC "-//W3C//DTD SVG 1.1//EN" "http://www.w3.org/Graphics/SVG/1.1/DTD/svg11.dtd">
<!-- Created with Vectornator (http://vectornator.io/) -->
<svg height="100%" stroke-miterlimit="10" style="fill-rule:nonzero;clip-rule:evenodd;stroke-linecap:round;stroke-linejoin:round;" version="1.1" viewBox="0 0 3000 600" width="100%" xml:space="preserve" xmlns="http://www.w3.org/2000/svg" xmlns:vectornator="http://vectornator.io" xmlns:xlink="http://www.w3.org/1999/xlink">
<defs/>
<g id="Layer-1" vectornator:layerName="Layer 1">
<path d="M200.919 22L252.718 22C263.167 22 271.637 30.4703 271.637 40.9189L271.637 92.7185C271.637 103.167 263.167 111.637 252.718 111.637L200.919 111.637C190.47 111.637 182 103.167 182 92.7185L182 40.9189C182 30.4703 190.47 22 200.919 22Z" fill="#fff300" fill-rule="nonzero" opacity="1" stroke="#ffd335" stroke-linecap="butt" stroke-linejoin="round" stroke-width="0.100292"/>
<path d="M200.919 120L252.718 120C263.167 120 271.637 128.47 271.637 138.919L271.637 190.718C271.637 201.167 263.167 209.637 252.718 209.637L200.919 209.637C190.47 209.637 182 201.167 182 190.718L182 138.919C182 128.47 190.47 120 200.919 120Z" fill="#fff300" fill-rule="nonzero" opacity="1" stroke="#ffd335" stroke-linecap="butt" stroke-linejoin="round" stroke-width="0.100292"/>
<path d="M298.919 22L350.718 22C361.167 22 369.637 30.4703 369.637 40.9189L369.637 92.7185C369.637 103.167 361.167 111.637 350.718 111.637L298.919 111.637C288.47 111.637 280 103.167 280 92.7185L280 40.9189C280 30.4703 288.47 22 298.919 22Z" fill="#fff300" fill-rule="nonzero" opacity="1" stroke="#ffd335" stroke-linecap="butt" stroke-linejoin="round" stroke-width="0.100292"/>
<path d="M396.919 22L448.718 22C459.167 22 467.637 30.4703 467.637 40.9189L467.637 92.7185C467.637 103.167 459.167 111.637 448.718 111.637L396.919 111.637C386.47 111.637 378 103.167 378 92.7185L378 40.9189C378 30.4703 386.47 22 396.919 22Z" fill="#fff300" fill-rule="nonzero" opacity="1" stroke="#ffd335" stroke-linecap="butt" stroke-linejoin="round" stroke-width="0.100292"/>
<path d="M200.919 218L252.718 218C263.167 218 271.637 226.47 271.637 236.919L271.637 288.718C271.637 299.167 263.167 307.637 252.718 307.637L200.919 307.637C190.47 307.637 182 299.167 182 288.718L182 236.919C182 226.47 190.47 218 200.919 218Z" fill="#fff300" fill-rule="nonzero" opacity="1" stroke="#ffd335" stroke-linecap="butt" stroke-linejoin="round" stroke-width="0.100292"/>
<path d="M298.919 218L350.718 218C361.167 218 369.637 226.47 369.637 236.919L369.637 288.718C369.637 299.167 361.167 307.637 350.718 307.637L298.919 307.637C288.47 307.637 280 299.167 280 288.718L280 236.919C280 226.47 288.47 218 298.919 218Z" fill="#fff300" fill-rule="nonzero" opacity="1" stroke="#ffd335" stroke-linecap="butt" stroke-linejoin="round" stroke-width="0.100292"/>
<path d="M200.919 316L252.718 316C263.167 316 271.637 324.47 271.637 334.919L271.637 386.718C271.637 397.167 263.167 405.637 252.718 405.637L200.919 405.637C190.47 405.637 182 397.167 182 386.718L182 334.919C182 324.47 190.47 316 200.919 316Z" fill="#fff300" fill-rule="nonzero" opacity="1" stroke="#ffd335" stroke-linecap="butt" stroke-linejoin="round" stroke-width="0.100292"/>
<path d="M200.919 414L252.718 414C263.167 414 271.637 422.47 271.637 432.919L271.637 484.718C271.637 495.167 263.167 503.637 252.718 503.637L200.919 503.637C190.47 503.637 182 495.167 182 484.718L182 432.919C182 422.47 190.47 414 200.919 414Z" fill="#fff300" fill-rule="nonzero" opacity="1" stroke="#ffd335" stroke-linecap="butt" stroke-linejoin="round" stroke-width="0.100292"/>
<path d="M836.919 22L888.718 22C899.167 22 907.637 30.4703 907.637 40.9189L907.637 92.7185C907.637 103.167 899.167 111.637 888.718 111.637L836.919 111.637C826.47 111.637 818 103.167 818 92.7185L818 40.9189C818 30.4703 826.47 22 836.919 22Z" fill="#fff300" fill-rule="nonzero" opacity="1" stroke="#ffd335" stroke-linecap="butt" stroke-linejoin="round" stroke-width="0.100292"/>
<path d="M836.919 120L888.718 120C899.167 120 907.637 128.47 907.637 138.919L907.637 190.718C907.637 201.167 899.167 209.637 888.718 209.637L836.919 209.637C826.47 209.637 818 201.167 818 190.718L818 138.919C818 128.47 826.47 120 836.919 120Z" fill="#fff300" fill-rule="nonzero" opacity="1" stroke="#ffd335" stroke-linecap="butt" stroke-linejoin="round" stroke-width="0.100292"/>
<path d="M836.919 218L888.718 218C899.167 218 907.637 226.47 907.637 236.919L907.637 288.718C907.637 299.167 899.167 307.637 888.718 307.637L836.919 307.637C826.47 307.637 818 299.167 818 288.718L818 236.919C818 226.47 826.47 218 836.919 218Z" fill="#fff300" fill-rule="nonzero" opacity="1" stroke="#ffd335" stroke-linecap="butt" stroke-linejoin="round" stroke-width="0.100292"/>
<path d="M836.919 316L888.718 316C899.167 316 907.637 324.47 907.637 334.919L907.637 386.718C907.637 397.167 899.167 405.637 888.718 405.637L836.919 405.637C826.47 405.637 818 397.167 818 386.718L818 334.919C818 324.47 826.47 316 836.919 316Z" fill="#fff300" fill-rule="nonzero" opacity="1" stroke="#ffd335" stroke-linecap="butt" stroke-linejoin="round" stroke-width="0.100292"/>
<path d="M836.919 414L888.718 414C899.167 414 907.637 422.47 907.637 432.919L907.637 484.718C907.637 495.167 899.167 503.637 888.718 503.637L836.919 503.637C826.47 503.637 818 495.167 818 484.718L818 432.919C818 422.47 826.47 414 836.919 414Z" fill="#fff300" fill-rule="nonzero" opacity="1" stroke="#ffd335" stroke-linecap="butt" stroke-linejoin="round" stroke-width="0.100292"/>
<path d="M518.919 120L570.718 120C581.167 120 589.637 128.47 589.637 138.919L589.637 190.718C589.637 201.167 581.167 209.637 570.718 209.637L518.919 209.637C508.47 209.637 500 201.167 500 190.718L500 138.919C500 128.47 508.47 120 518.919 120Z" fill="#fff300" fill-rule="nonzero" opacity="1" stroke="#ffd335" stroke-linecap="butt" stroke-linejoin="round" stroke-width="0.100292"/>
<path d="M518.919 218L570.718 218C581.167 218 589.637 226.47 589.637 236.919L589.637 288.718C589.637 299.167 581.167 307.637 570.718 307.637L518.919 307.637C508.47 307.637 500 299.167 500 288.718L500 236.919C500 226.47 508.47 218 518.919 218Z" fill="#fff300" fill-rule="nonzero" opacity="1" stroke="#ffd335" stroke-linecap="butt" stroke-linejoin="round" stroke-width="0.100292"/>
<path d="M616.919 218L668.718 218C679.167 218 687.637 226.47 687.637 236.919L687.637 288.718C687.637 299.167 679.167 307.637 668.718 307.637L616.919 307.637C606.47 307.637 598 299.167 598 288.718L598 236.919C598 226.47 606.47 218 616.919 218Z" fill="#fff300" fill-rule="nonzero" opacity="1" stroke="#ffd335" stroke-linecap="butt" stroke-linejoin="round" stroke-width="0.100292"/>
<path d="M616.919 22L668.718 22C679.167 22 687.637 30.4703 687.637 40.9189L687.637 92.7185C687.637 103.167 679.167 111.637 668.718 111.637L616.919 111.637C606.47 111.637 598 103.167 598 92.7185L598 40.9189C598 30.4703 606.47 22 616.919 22Z" fill="#fff300" fill-rule="nonzero" opacity="1" stroke="#ffd335" stroke-linecap="butt" stroke-linejoin="round" stroke-width="0.100292"/>
<path d="M781.362 98.1143C777.89 102.346 772.619 105.044 766.718 105.04L714.919 105.011C704.47 105.005 696.005 96.5297 696.011 86.0811L696.04 34.2815C696.043 29.104 698.126 24.4133 701.498 20.9991" fill="#fff300" fill-rule="nonzero" opacity="1" stroke="#ffd335" stroke-linecap="butt" stroke-linejoin="round" stroke-width="0.100292"/>
<path d="M999.278 202.325C995.806 206.556 990.535 209.255 984.635 209.251L932.835 209.222C922.387 209.216 913.921 200.741 913.927 190.292L913.957 138.492C913.959 133.315 916.042 128.624 919.414 125.21" fill="#fff300" fill-rule="nonzero" opacity="1" stroke="#ffd335" stroke-linecap="butt" stroke-linejoin="round" stroke-width="0.100292"/>
<path d="M577.07 22C580.547 25.4306 582.703 30.1982 582.703 35.4693L582.703 87.2688C582.703 97.7175 574.233 106.188 563.784 106.188L511.985 106.188C507.436 106.188 503.263 104.583 500 101.908" fill="#fff300" fill-rule="nonzero" opacity="1" stroke="#ffd335" stroke-linecap="butt" stroke-linejoin="round" stroke-width="0.100292"/>
<path d="M1073.44 124.289C1076.92 127.72 1079.08 132.487 1079.08 137.758L1079.08 189.558C1079.08 200.007 1070.61 208.477 1060.16 208.477L1008.36 208.477C1003.81 208.477 999.636 206.872 996.373 204.198" fill="#fff300" fill-rule="nonzero" opacity="1" stroke="#ffd335" stroke-linecap="butt" stroke-linejoin="round" stroke-width="0.100292"/>
<path d="M518.919 316L570.718 316C581.167 316 589.637 324.47 589.637 334.919L589.637 386.718C589.637 397.167 581.167 405.637 570.718 405.637L518.919 405.637C508.47 405.637 500 397.167 500 386.718L500 334.919C500 324.47 508.47 316 518.919 316Z" fill="#fff300" fill-rule="nonzero" opacity="1" stroke="#ffd335" stroke-linecap="butt" stroke-linejoin="round" stroke-width="0.100292"/>
<path d="M518.919 414L570.718 414C581.167 414 589.637 422.47 589.637 432.919L589.637 484.718C589.637 495.167 581.167 503.637 570.718 503.637L518.919 503.637C508.47 503.637 500 495.167 500 484.718L500 432.919C500 422.47 508.47 414 518.919 414Z" fill="#fff300" fill-rule="nonzero" opacity="1" stroke="#ffd335" stroke-linecap="butt" stroke-linejoin="round" stroke-width="0.100292"/>
<path d="M714.919 120L766.718 120C777.167 120 785.637 128.47 785.637 138.919L785.637 190.718C785.637 201.167 777.167 209.637 766.718 209.637L714.919 209.637C704.47 209.637 696 201.167 696 190.718L696 138.919C696 128.47 704.47 120 714.919 120Z" fill="#fff300" fill-rule="nonzero" opacity="1" stroke="#ffd335" stroke-linecap="butt" stroke-linejoin="round" stroke-width="0.100292"/>
<path d="M714.919 218L766.718 218C777.167 218 785.637 226.47 785.637 236.919L785.637 288.718C785.637 299.167 777.167 307.637 766.718 307.637L714.919 307.637C704.47 307.637 696 299.167 696 288.718L696 236.919C696 226.47 704.47 218 714.919 218Z" fill="#fff300" fill-rule="nonzero" opacity="1" stroke="#ffd335" stroke-linecap="butt" stroke-linejoin="round" stroke-width="0.100292"/>
<path d="M714.919 316L766.718 316C777.167 316 785.637 324.47 785.637 334.919L785.637 386.718C785.637 397.167 777.167 405.637 766.718 405.637L714.919 405.637C704.47 405.637 696 397.167 696 386.718L696 334.919C696 324.47 704.47 316 714.919 316Z" fill="#fff300" fill-rule="nonzero" opacity="1" stroke="#ffd335" stroke-linecap="butt" stroke-linejoin="round" stroke-width="0.100292"/>
<path d="M714.919 414L766.718 414C777.167 414 785.637 422.47 785.637 432.919L785.637 484.718C785.637 495.167 777.167 503.637 766.718 503.637L714.919 503.637C704.47 503.637 696 495.167 696 484.718L696 432.919C696 422.47 704.47 414 714.919 414Z" fill="#fff300" fill-rule="nonzero" opacity="1" stroke="#ffd335" stroke-linecap="butt" stroke-linejoin="round" stroke-width="0.100292"/>
<path d="M1846.92 120L1898.72 120C1909.17 120 1917.64 128.47 1917.64 138.919L1917.64 190.718C1917.64 201.167 1909.17 209.637 1898.72 209.637L1846.92 209.637C1836.47 209.637 1828 201.167 1828 190.718L1828 138.919C1828 128.47 1836.47 120 1846.92 120Z" fill="#fff300" fill-rule="nonzero" opacity="1" stroke="#ffd335" stroke-linecap="butt" stroke-linejoin="round" stroke-width="0.100292"/>
<path d="M1846.92 218L1898.72 218C1909.17 218 1917.64 226.47 1917.64 236.919L1917.64 288.718C1917.64 299.167 1909.17 307.637 1898.72 307.637L1846.92 307.637C1836.47 307.637 1828 299.167 1828 288.718L1828 236.919C1828 226.47 1836.47 218 1846.92 218Z" fill="#fff300" fill-rule="nonzero" opacity="1" stroke="#ffd335" stroke-linecap="butt" stroke-linejoin="round" stroke-width="0.100292"/>
<path d="M1944.92 218L1996.72 218C2007.17 218 2015.64 226.47 2015.64 236.919L2015.64 288.718C2015.64 299.167 2007.17 307.637 1996.72 307.637L1944.92 307.637C1934.47 307.637 1926 299.167 1926 288.718L1926 236.919C1926 226.47 1934.47 218 1944.92 218Z" fill="#fff300" fill-rule="nonzero" opacity="1" stroke="#ffd335" stroke-linecap="butt" stroke-linejoin="round" stroke-width="0.100292"/>
<path d="M1944.92 22L1996.72 22C2007.17 22 2015.64 30.4703 2015.64 40.9189L2015.64 92.7185C2015.64 103.167 2007.17 111.637 1996.72 111.637L1944.92 111.637C1934.47 111.637 1926 103.167 1926 92.7185L1926 40.9189C1926 30.4703 1934.47 22 1944.92 22Z" fill="#fff300" fill-rule="nonzero" opacity="1" stroke="#ffd335" stroke-linecap="butt" stroke-linejoin="round" stroke-width="0.100292"/>
<path d="M2109.36 98.1143C2105.89 102.346 2100.62 105.044 2094.72 105.04L2042.92 105.011C2032.47 105.005 2024 96.5297 2024.01 86.0811L2024.04 34.2815C2024.04 29.104 2026.13 24.4133 2029.5 20.9991" fill="#fff300" fill-rule="nonzero" opacity="1" stroke="#ffd335" stroke-linecap="butt" stroke-linejoin="round" stroke-width="0.100292"/>
<path d="M2465.36 98.1143C2461.89 102.346 2456.62 105.044 2450.72 105.04L2398.92 105.011C2388.47 105.005 2380 96.5297 2380.01 86.0811L2380.04 34.2815C2380.04 29.104 2382.13 24.4133 2385.5 20.9991" fill="#fff300" fill-rule="nonzero" opacity="1" stroke="#ffd335" stroke-linecap="butt" stroke-linejoin="round" stroke-width="0.100292"/>
<path d="M1905.07 22C1908.55 25.4306 1910.7 30.1982 1910.7 35.4693L1910.7 87.2688C1910.7 97.7175 1902.23 106.188 1891.78 106.188L1839.98 106.188C1835.44 106.188 1831.26 104.583 1828 101.908" fill="#fff300" fill-rule="nonzero" opacity="1" stroke="#ffd335" stroke-linecap="butt" stroke-linejoin="round" stroke-width="0.100292"/>
<path d="M2386.84 502.224C2383.35 498.8 2381.19 494.037 2381.18 488.766L2381.08 436.966C2381.06 426.518 2389.51 418.031 2399.96 418.012L2451.76 417.913C2456.31 417.904 2460.49 419.501 2463.76 422.169" fill="#fff300" fill-rule="nonzero" opacity="1" stroke="#ffd335" stroke-linecap="butt" stroke-linejoin="round" stroke-width="0.100292"/>
<path d="M1846.92 316L1898.72 316C1909.17 316 1917.64 324.47 1917.64 334.919L1917.64 386.718C1917.64 397.167 1909.17 405.637 1898.72 405.637L1846.92 405.637C1836.47 405.637 1828 397.167 1828 386.718L1828 334.919C1828 324.47 1836.47 316 1846.92 316Z" fill="#fff300" fill-rule="nonzero" opacity="1" stroke="#ffd335" stroke-linecap="butt" stroke-linejoin="round" stroke-width="0.100292"/>
<path d="M1846.92 414L1898.72 414C1909.17 414 1917.64 422.47 1917.64 432.919L1917.64 484.718C1917.64 495.167 1909.17 503.637 1898.72 503.637L1846.92 503.637C1836.47 503.637 1828 495.167 1828 484.718L1828 432.919C1828 422.47 1836.47 414 1846.92 414Z" fill="#fff300" fill-rule="nonzero" opacity="1" stroke="#ffd335" stroke-linecap="butt" stroke-linejoin="round" stroke-width="0.100292"/>
<path d="M2042.92 120L2094.72 120C2105.17 120 2113.64 128.47 2113.64 138.919L2113.64 190.718C2113.64 201.167 2105.17 209.637 2094.72 209.637L2042.92 209.637C2032.47 209.637 2024 201.167 2024 190.718L2024 138.919C2024 128.47 2032.47 120 2042.92 120Z" fill="#fff300" fill-rule="nonzero" opacity="1" stroke="#ffd335" stroke-linecap="butt" stroke-linejoin="round" stroke-width="0.100292"/>
<path d="M2042.92 218L2094.72 218C2105.17 218 2113.64 226.47 2113.64 236.919L2113.64 288.718C2113.64 299.167 2105.17 307.637 2094.72 307.637L2042.92 307.637C2032.47 307.637 2024 299.167 2024 288.718L2024 236.919C2024 226.47 2032.47 218 2042.92 218Z" fill="#fff300" fill-rule="nonzero" opacity="1" stroke="#ffd335" stroke-linecap="butt" stroke-linejoin="round" stroke-width="0.100292"/>
<path d="M2042.92 316L2094.72 316C2105.17 316 2113.64 324.47 2113.64 334.919L2113.64 386.718C2113.64 397.167 2105.17 405.637 2094.72 405.637L2042.92 405.637C2032.47 405.637 2024 397.167 2024 386.718L2024 334.919C2024 324.47 2032.47 316 2042.92 316Z" fill="#fff300" fill-rule="nonzero" opacity="1" stroke="#ffd335" stroke-linecap="butt" stroke-linejoin="round" stroke-width="0.100292"/>
<path d="M2042.92 414L2094.72 414C2105.17 414 2113.64 422.47 2113.64 432.919L2113.64 484.718C2113.64 495.167 2105.17 503.637 2094.72 503.637L2042.92 503.637C2032.47 503.637 2024 495.167 2024 484.718L2024 432.919C2024 422.47 2032.47 414 2042.92 414Z" fill="#fff300" fill-rule="nonzero" opacity="1" stroke="#ffd335" stroke-linecap="butt" stroke-linejoin="round" stroke-width="0.100292"/>
<path d="M2558.92 120L2610.72 120C2621.17 120 2629.64 128.47 2629.64 138.919L2629.64 190.718C2629.64 201.167 2621.17 209.637 2610.72 209.637L2558.92 209.637C2548.47 209.637 2540 201.167 2540 190.718L2540 138.919C2540 128.47 2548.47 120 2558.92 120Z" fill="#fff300" fill-rule="nonzero" opacity="1" stroke="#ffd335" stroke-linecap="butt" stroke-linejoin="round" stroke-width="0.100292"/>
<path d="M2558.92 218L2610.72 218C2621.17 218 2629.64 226.47 2629.64 236.919L2629.64 288.718C2629.64 299.167 2621.17 307.637 2610.72 307.637L2558.92 307.637C2548.47 307.637 2540 299.167 2540 288.718L2540 236.919C2540 226.47 2548.47 218 2558.92 218Z" fill="#fff300" fill-rule="nonzero" opacity="1" stroke="#ffd335" stroke-linecap="butt" stroke-linejoin="round" stroke-width="0.100292"/>
<path d="M2656.92 218L2708.72 218C2719.17 218 2727.64 226.47 2727.64 236.919L2727.64 288.718C2727.64 299.167 2719.17 307.637 2708.72 307.637L2656.92 307.637C2646.47 307.637 2638 299.167 2638 288.718L2638 236.919C2638 226.47 2646.47 218 2656.92 218Z" fill="#fff300" fill-rule="nonzero" opacity="1" stroke="#ffd335" stroke-linecap="butt" stroke-linejoin="round" stroke-width="0.100292"/>
<path d="M2656.92 22L2708.72 22C2719.17 22 2727.64 30.4703 2727.64 40.9189L2727.64 92.7185C2727.64 103.167 2719.17 111.637 2708.72 111.637L2656.92 111.637C2646.47 111.637 2638 103.167 2638 92.7185L2638 40.9189C2638 30.4703 2646.47 22 2656.92 22Z" fill="#fff300" fill-rule="nonzero" opacity="1" stroke="#ffd335" stroke-linecap="butt" stroke-linejoin="round" stroke-width="0.100292"/>
<path d="M2821.36 98.1143C2817.89 102.346 2812.62 105.044 2806.72 105.04L2754.92 105.011C2744.47 105.005 2736 96.5297 2736.01 86.0811L2736.04 34.2815C2736.04 29.104 2738.13 24.4133 2741.5 20.9991" fill="#fff300" fill-rule="nonzero" opacity="1" stroke="#ffd335" stroke-linecap="butt" stroke-linejoin="round" stroke-width="0.100292"/>
<path d="M2615.9 22C2619.38 25.4306 2621.53 30.1982 2621.53 35.4693L2621.53 87.2688C2621.53 97.7175 2613.06 106.188 2602.61 106.188L2550.81 106.188C2546.27 106.188 2542.09 104.583 2538.83 101.908" fill="#fff300" fill-rule="nonzero" opacity="1" stroke="#ffd335" stroke-linecap="butt" stroke-linejoin="round" stroke-width="0.100292"/>
<path d="M2558.92 316L2610.72 316C2621.17 316 2629.64 324.47 2629.64 334.919L2629.64 386.718C2629.64 397.167 2621.17 405.637 2610.72 405.637L2558.92 405.637C2548.47 405.637 2540 397.167 2540 386.718L2540 334.919C2540 324.47 2548.47 316 2558.92 316Z" fill="#fff300" fill-rule="nonzero" opacity="1" stroke="#ffd335" stroke-linecap="butt" stroke-linejoin="round" stroke-width="0.100292"/>
<path d="M2558.92 414L2610.72 414C2621.17 414 2629.64 422.47 2629.64 432.919L2629.64 484.718C2629.64 495.167 2621.17 503.637 2610.72 503.637L2558.92 503.637C2548.47 503.637 2540 495.167 2540 484.718L2540 432.919C2540 422.47 2548.47 414 2558.92 414Z" fill="#fff300" fill-rule="nonzero" opacity="1" stroke="#ffd335" stroke-linecap="butt" stroke-linejoin="round" stroke-width="0.100292"/>
<path d="M2754.92 120L2806.72 120C2817.17 120 2825.64 128.47 2825.64 138.919L2825.64 190.718C2825.64 201.167 2817.17 209.637 2806.72 209.637L2754.92 209.637C2744.47 209.637 2736 201.167 2736 190.718L2736 138.919C2736 128.47 2744.47 120 2754.92 120Z" fill="#fff300" fill-rule="nonzero" opacity="1" stroke="#ffd335" stroke-linecap="butt" stroke-linejoin="round" stroke-width="0.100292"/>
<path d="M2754.92 218L2806.72 218C2817.17 218 2825.64 226.47 2825.64 236.919L2825.64 288.718C2825.64 299.167 2817.17 307.637 2806.72 307.637L2754.92 307.637C2744.47 307.637 2736 299.167 2736 288.718L2736 236.919C2736 226.47 2744.47 218 2754.92 218Z" fill="#fff300" fill-rule="nonzero" opacity="1" stroke="#ffd335" stroke-linecap="butt" stroke-linejoin="round" stroke-width="0.100292"/>
<path d="M2754.92 316L2806.72 316C2817.17 316 2825.64 324.47 2825.64 334.919L2825.64 386.718C2825.64 397.167 2817.17 405.637 2806.72 405.637L2754.92 405.637C2744.47 405.637 2736 397.167 2736 386.718L2736 334.919C2736 324.47 2744.47 316 2754.92 316Z" fill="#fff300" fill-rule="nonzero" opacity="1" stroke="#ffd335" stroke-linecap="butt" stroke-linejoin="round" stroke-width="0.100292"/>
<path d="M2754.92 414L2806.72 414C2817.17 414 2825.64 422.47 2825.64 432.919L2825.64 484.718C2825.64 495.167 2817.17 503.637 2806.72 503.637L2754.92 503.637C2744.47 503.637 2736 495.167 2736 484.718L2736 432.919C2736 422.47 2744.47 414 2754.92 414Z" fill="#fff300" fill-rule="nonzero" opacity="1" stroke="#ffd335" stroke-linecap="butt" stroke-linejoin="round" stroke-width="0.100292"/>
<path d="M1108.92 22L1160.72 22C1171.17 22 1179.64 30.4703 1179.64 40.9189L1179.64 92.7185C1179.64 103.167 1171.17 111.637 1160.72 111.637L1108.92 111.637C1098.47 111.637 1090 103.167 1090 92.7185L1090 40.9189C1090 30.4703 1098.47 22 1108.92 22Z" fill="#fff300" fill-rule="nonzero" opacity="1" stroke="#ffd335" stroke-linecap="butt" stroke-linejoin="round" stroke-width="0.100292"/>
<path d="M1108.92 120L1160.72 120C1171.17 120 1179.64 128.47 1179.64 138.919L1179.64 190.718C1179.64 201.167 1171.17 209.637 1160.72 209.637L1108.92 209.637C1098.47 209.637 1090 201.167 1090 190.718L1090 138.919C1090 128.47 1098.47 120 1108.92 120Z" fill="#fff300" fill-rule="nonzero" opacity="1" stroke="#ffd335" stroke-linecap="butt" stroke-linejoin="round" stroke-width="0.100292"/>
<path d="M1108.92 218L1160.72 218C1171.17 218 1179.64 226.47 1179.64 236.919L1179.64 288.718C1179.64 299.167 1171.17 307.637 1160.72 307.637L1108.92 307.637C1098.47 307.637 1090 299.167 1090 288.718L1090 236.919C1090 226.47 1098.47 218 1108.92 218Z" fill="#fff300" fill-rule="nonzero" opacity="1" stroke="#ffd335" stroke-linecap="butt" stroke-linejoin="round" stroke-width="0.100292"/>
<path d="M1108.92 316L1160.72 316C1171.17 316 1179.64 324.47 1179.64 334.919L1179.64 386.718C1179.64 397.167 1171.17 405.637 1160.72 405.637L1108.92 405.637C1098.47 405.637 1090 397.167 1090 386.718L1090 334.919C1090 324.47 1098.47 316 1108.92 316Z" fill="#fff300" fill-rule="nonzero" opacity="1" stroke="#ffd335" stroke-linecap="butt" stroke-linejoin="round" stroke-width="0.100292"/>
<path d="M1108.92 414L1160.72 414C1171.17 414 1179.64 422.47 1179.64 432.919L1179.64 484.718C1179.64 495.167 1171.17 503.637 1160.72 503.637L1108.92 503.637C1098.47 503.637 1090 495.167 1090 484.718L1090 432.919C1090 422.47 1098.47 414 1108.92 414Z" fill="#fff300" fill-rule="nonzero" opacity="1" stroke="#ffd335" stroke-linecap="butt" stroke-linejoin="round" stroke-width="0.100292"/>
<path d="M1268.92 120L1320.72 120C1331.17 120 1339.64 128.47 1339.64 138.919L1339.64 190.718C1339.64 201.167 1331.17 209.637 1320.72 209.637L1268.92 209.637C1258.47 209.637 1250 201.167 1250 190.718L1250 138.919C1250 128.47 1258.47 120 1268.92 120Z" fill="#fff300" fill-rule="nonzero" opacity="1" stroke="#ffd335" stroke-linecap="butt" stroke-linejoin="round" stroke-width="0.100292"/>
<path d="M1268.92 218L1320.72 218C1331.17 218 1339.64 226.47 1339.64 236.919L1339.64 288.718C1339.64 299.167 1331.17 307.637 1320.72 307.637L1268.92 307.637C1258.47 307.637 1250 299.167 1250 288.718L1250 236.919C1250 226.47 1258.47 218 1268.92 218Z" fill="#fff300" fill-rule="nonzero" opacity="1" stroke="#ffd335" stroke-linecap="butt" stroke-linejoin="round" stroke-width="0.100292"/>
<path d="M1268.92 316L1320.72 316C1331.17 316 1339.64 324.47 1339.64 334.919L1339.64 386.718C1339.64 397.167 1331.17 405.637 1320.72 405.637L1268.92 405.637C1258.47 405.637 1250 397.167 1250 386.718L1250 334.919C1250 324.47 1258.47 316 1268.92 316Z" fill="#fff300" fill-rule="nonzero" opacity="1" stroke="#ffd335" stroke-linecap="butt" stroke-linejoin="round" stroke-width="0.100292"/>
<path d="M1268.92 414L1320.72 414C1331.17 414 1339.64 422.47 1339.64 432.919L1339.64 484.718C1339.64 495.167 1331.17 503.637 1320.72 503.637L1268.92 503.637C1258.47 503.637 1250 495.167 1250 484.718L1250 432.919C1250 422.47 1258.47 414 1268.92 414Z" fill="#fff300" fill-rule="nonzero" opacity="1" stroke="#ffd335" stroke-linecap="butt" stroke-linejoin="round" stroke-width="0.100292"/>
<path d="M1686.92 120L1738.72 120C1749.17 120 1757.64 128.47 1757.64 138.919L1757.64 190.718C1757.64 201.167 1749.17 209.637 1738.72 209.637L1686.92 209.637C1676.47 209.637 1668 201.167 1668 190.718L1668 138.919C1668 128.47 1676.47 120 1686.92 120Z" fill="#fff300" fill-rule="nonzero" opacity="1" stroke="#ffd335" stroke-linecap="butt" stroke-linejoin="round" stroke-width="0.100292"/>
<path d="M1686.92 218L1738.72 218C1749.17 218 1757.64 226.47 1757.64 236.919L1757.64 288.718C1757.64 299.167 1749.17 307.637 1738.72 307.637L1686.92 307.637C1676.47 307.637 1668 299.167 1668 288.718L1668 236.919C1668 226.47 1676.47 218 1686.92 218Z" fill="#fff300" fill-rule="nonzero" opacity="1" stroke="#ffd335" stroke-linecap="butt" stroke-linejoin="round" stroke-width="0.100292"/>
<path d="M1686.92 22L1738.72 22C1749.17 22 1757.64 30.4703 1757.64 40.9189L1757.64 92.7185C1757.64 103.167 1749.17 111.637 1738.72 111.637L1686.92 111.637C1676.47 111.637 1668 103.167 1668 92.7185L1668 40.9189C1668 30.4703 1676.47 22 1686.92 22Z" fill="#fff300" fill-rule="nonzero" opacity="1" stroke="#ffd335" stroke-linecap="butt" stroke-linejoin="round" stroke-width="0.100292"/>
<path d="M1686.92 316L1738.72 316C1749.17 316 1757.64 324.47 1757.64 334.919L1757.64 386.718C1757.64 397.167 1749.17 405.637 1738.72 405.637L1686.92 405.637C1676.47 405.637 1668 397.167 1668 386.718L1668 334.919C1668 324.47 1676.47 316 1686.92 316Z" fill="#fff300" fill-rule="nonzero" opacity="1" stroke="#ffd335" stroke-linecap="butt" stroke-linejoin="round" stroke-width="0.100292"/>
<path d="M1686.92 414L1738.72 414C1749.17 414 1757.64 422.47 1757.64 432.919L1757.64 484.718C1757.64 495.167 1749.17 503.637 1738.72 503.637L1686.92 503.637C1676.47 503.637 1668 495.167 1668 484.718L1668 432.919C1668 422.47 1676.47 414 1686.92 414Z" fill="#fff300" fill-rule="nonzero" opacity="1" stroke="#ffd335" stroke-linecap="butt" stroke-linejoin="round" stroke-width="0.100292"/>
<path d="M2202.92 22L2254.72 22C2265.17 22 2273.64 30.4703 2273.64 40.9189L2273.64 92.7185C2273.64 103.167 2265.17 111.637 2254.72 111.637L2202.92 111.637C2192.47 111.637 2184 103.167 2184 92.7185L2184 40.9189C2184 30.4703 2192.47 22 2202.92 22Z" fill="#fff300" fill-rule="nonzero" opacity="1" stroke="#ffd335" stroke-linecap="butt" stroke-linejoin="round" stroke-width="0.100292"/>
<path d="M2300.92 22L2352.72 22C2363.17 22 2371.64 30.4703 2371.64 40.9189L2371.64 92.7185C2371.64 103.167 2363.17 111.637 2352.72 111.637L2300.92 111.637C2290.47 111.637 2282 103.167 2282 92.7185L2282 40.9189C2282 30.4703 2290.47 22 2300.92 22Z" fill="#fff300" fill-rule="nonzero" opacity="1" stroke="#ffd335" stroke-linecap="butt" stroke-linejoin="round" stroke-width="0.100292"/>
<path d="M2202.92 120L2254.72 120C2265.17 120 2273.64 128.47 2273.64 138.919L2273.64 190.718C2273.64 201.167 2265.17 209.637 2254.72 209.637L2202.92 209.637C2192.47 209.637 2184 201.167 2184 190.718L2184 138.919C2184 128.47 2192.47 120 2202.92 120Z" fill="#fff300" fill-rule="nonzero" opacity="1" stroke="#ffd335" stroke-linecap="butt" stroke-linejoin="round" stroke-width="0.100292"/>
<path d="M2202.92 218L2254.72 218C2265.17 218 2273.64 226.47 2273.64 236.919L2273.64 288.718C2273.64 299.167 2265.17 307.637 2254.72 307.637L2202.92 307.637C2192.47 307.637 2184 299.167 2184 288.718L2184 236.919C2184 226.47 2192.47 218 2202.92 218Z" fill="#fff300" fill-rule="nonzero" opacity="1" stroke="#ffd335" stroke-linecap="butt" stroke-linejoin="round" stroke-width="0.100292"/>
<path d="M2202.92 316L2254.72 316C2265.17 316 2273.64 324.47 2273.64 334.919L2273.64 386.718C2273.64 397.167 2265.17 405.637 2254.72 405.637L2202.92 405.637C2192.47 405.637 2184 397.167 2184 386.718L2184 334.919C2184 324.47 2192.47 316 2202.92 316Z" fill="#fff300" fill-rule="nonzero" opacity="1" stroke="#ffd335" stroke-linecap="butt" stroke-linejoin="round" stroke-width="0.100292"/>
<path d="M2398.92 218L2450.72 218C2461.17 218 2469.64 226.47 2469.64 236.919L2469.64 288.718C2469.64 299.167 2461.17 307.637 2450.72 307.637L2398.92 307.637C2388.47 307.637 2380 299.167 2380 288.718L2380 236.919C2380 226.47 2388.47 218 2398.92 218Z" fill="#fff300" fill-rule="nonzero" opacity="1" stroke="#ffd335" stroke-linecap="butt" stroke-linejoin="round" stroke-width="0.100292"/>
<path d="M2398.92 120L2450.72 120C2461.17 120 2469.64 128.47 2469.64 138.919L2469.64 190.718C2469.64 201.167 2461.17 209.637 2450.72 209.637L2398.92 209.637C2388.47 209.637 2380 201.167 2380 190.718L2380 138.919C2380 128.47 2388.47 120 2398.92 120Z" fill="#fff300" fill-rule="nonzero" opacity="1" stroke="#ffd335" stroke-linecap="butt" stroke-linejoin="round" stroke-width="0.100292"/>
<path d="M2398.92 316L2450.72 316C2461.17 316 2469.64 324.47 2469.64 334.919L2469.64 386.718C2469.64 397.167 2461.17 405.637 2450.72 405.637L2398.92 405.637C2388.47 405.637 2380 397.167 2380 386.718L2380 334.919C2380 324.47 2388.47 316 2398.92 316Z" fill="#fff300" fill-rule="nonzero" opacity="1" stroke="#ffd335" stroke-linecap="butt" stroke-linejoin="round" stroke-width="0.100292"/>
<path d="M2202.92 414L2254.72 414C2265.17 414 2273.64 422.47 2273.64 432.919L2273.64 484.718C2273.64 495.167 2265.17 503.637 2254.72 503.637L2202.92 503.637C2192.47 503.637 2184 495.167 2184 484.718L2184 432.919C2184 422.47 2192.47 414 2202.92 414Z" fill="#fff300" fill-rule="nonzero" opacity="1" stroke="#ffd335" stroke-linecap="butt" stroke-linejoin="round" stroke-width="0.100292"/>
<path d="M1428.92 22L1480.72 22C1491.17 22 1499.64 30.4703 1499.64 40.9189L1499.64 92.7185C1499.64 103.167 1491.17 111.637 1480.72 111.637L1428.92 111.637C1418.47 111.637 1410 103.167 1410 92.7185L1410 40.9189C1410 30.4703 1418.47 22 1428.92 22Z" fill="#fff300" fill-rule="nonzero" opacity="1" stroke="#ffd335" stroke-linecap="butt" stroke-linejoin="round" stroke-width="0.100292"/>
<path d="M1428.92 218L1480.72 218C1491.17 218 1499.64 226.47 1499.64 236.919L1499.64 288.718C1499.64 299.167 1491.17 307.637 1480.72 307.637L1428.92 307.637C1418.47 307.637 1410 299.167 1410 288.718L1410 236.919C1410 226.47 1418.47 218 1428.92 218Z" fill="#fff300" fill-rule="nonzero" opacity="1" stroke="#ffd335" stroke-linecap="butt" stroke-linejoin="round" stroke-width="0.100292"/>
<path d="M1428.92 120L1480.72 120C1491.17 120 1499.64 128.47 1499.64 138.919L1499.64 190.718C1499.64 201.167 1491.17 209.637 1480.72 209.637L1428.92 209.637C1418.47 209.637 1410 201.167 1410 190.718L1410 138.919C1410 128.47 1418.47 120 1428.92 120Z" fill="#fff300" fill-rule="nonzero" opacity="1" stroke="#ffd335" stroke-linecap="butt" stroke-linejoin="round" stroke-width="0.100292"/>
<path d="M1428.92 316L1480.72 316C1491.17 316 1499.64 324.47 1499.64 334.919L1499.64 386.718C1499.64 397.167 1491.17 405.637 1480.72 405.637L1428.92 405.637C1418.47 405.637 1410 397.167 1410 386.718L1410 334.919C1410 324.47 1418.47 316 1428.92 316Z" fill="#fff300" fill-rule="nonzero" opacity="1" stroke="#ffd335" stroke-linecap="butt" stroke-linejoin="round" stroke-width="0.100292"/>
<path d="M1428.92 414L1480.72 414C1491.17 414 1499.64 422.47 1499.64 432.919L1499.64 484.718C1499.64 495.167 1491.17 503.637 1480.72 503.637L1428.92 503.637C1418.47 503.637 1410 495.167 1410 484.718L1410 432.919C1410 422.47 1418.47 414 1428.92 414Z" fill="#fff300" fill-rule="nonzero" opacity="1" stroke="#ffd335" stroke-linecap="butt" stroke-linejoin="round" stroke-width="0.100292"/>
<path d="M1526.92 414L1578.72 414C1589.17 414 1597.64 422.47 1597.64 432.919L1597.64 484.718C1597.64 495.167 1589.17 503.637 1578.72 503.637L1526.92 503.637C1516.47 503.637 1508 495.167 1508 484.718L1508 432.919C1508 422.47 1516.47 414 1526.92 414Z" fill="#fff300" fill-rule="nonzero" opacity="1" stroke="#ffd335" stroke-linecap="butt" stroke-linejoin="round" stroke-width="0.100292"/>
<path d="M2300.92 414L2352.72 414C2363.17 414 2371.64 422.47 2371.64 432.919L2371.64 484.718C2371.64 495.167 2363.17 503.637 2352.72 503.637L2300.92 503.637C2290.47 503.637 2282 495.167 2282 484.718L2282 432.919C2282 422.47 2290.47 414 2300.92 414Z" fill="#fff300" fill-rule="nonzero" opacity="1" stroke="#ffd335" stroke-linecap="butt" stroke-linejoin="round" stroke-width="0.100292"/>
<path d="M1268.92 22L1320.72 22C1331.17 22 1339.64 30.4703 1339.64 40.9189L1339.64 92.7185C1339.64 103.167 1331.17 111.637 1320.72 111.637L1268.92 111.637C1258.47 111.637 1250 103.167 1250 92.7185L1250 40.9189C1250 30.4703 1258.47 22 1268.92 22Z" fill="#fff300" fill-rule="nonzero" opacity="1" stroke="#ffd335" stroke-linecap="butt" stroke-linejoin="round" stroke-width="0.100292"/>
</g>
</svg>
