<?xml version="1.0" encoding="UTF-8" standalone="no"?>
<!-- Created with Inkscape (http://www.inkscape.org/) -->

<svg
   width="1005mm"
   height="1371mm"
   viewBox="0 0 1005 1371"
   version="1.1"
   id="svg5660"
   inkscape:version="1.2.1 (9c6d41e410, 2022-07-14)"
   sodipodi:docname="small_X.svg"
   xmlns:inkscape="http://www.inkscape.org/namespaces/inkscape"
   xmlns:sodipodi="http://sodipodi.sourceforge.net/DTD/sodipodi-0.dtd"
   xmlns="http://www.w3.org/2000/svg"
   xmlns:svg="http://www.w3.org/2000/svg">
  <sodipodi:namedview
     id="namedview5662"
     pagecolor="#505050"
     bordercolor="#eeeeee"
     borderopacity="1"
     inkscape:showpageshadow="0"
     inkscape:pageopacity="0"
     inkscape:pagecheckerboard="0"
     inkscape:deskcolor="#505050"
     inkscape:document-units="mm"
     showgrid="false"
     inkscape:zoom="0.09231464"
     inkscape:cx="1462.3899"
     inkscape:cy="3433.9082"
     inkscape:window-width="1920"
     inkscape:window-height="1009"
     inkscape:window-x="-8"
     inkscape:window-y="-8"
     inkscape:window-maximized="1"
     inkscape:current-layer="layer1" />
  <defs
     id="defs5657" />
  <g
     inkscape:label="Warstwa 1"
     inkscape:groupmode="layer"
     id="layer1">
    <rect
       style="fill:#fff700;fill-opacity:1;stroke-width:2.91041"
       id="rect1006"
       width="55"
       height="55"
       x="-55"
       y="0"
       rx="11"
       ry="11"
       transform="scale(-1,1)" />
    <rect
       style="fill:#fff700;fill-opacity:1;stroke-width:2.91041"
       id="rect7506"
       width="55"
       height="55"
       x="-55"
       y="61"
       rx="11"
       ry="11"
       transform="scale(-1,1)" />
    <rect
       style="fill:#fff700;fill-opacity:1;stroke-width:2.91041"
       id="rect7508"
       width="55"
       height="55"
       x="-55"
       y="122"
       rx="11"
       ry="11"
       transform="scale(-1,1)" />
    <rect
       style="fill:#fff700;fill-opacity:1;stroke-width:2.91041"
       id="rect7510"
       width="55"
       height="55"
       x="-116"
       y="0"
       rx="11"
       ry="11"
       transform="scale(-1,1)" />
    <rect
       style="fill:#fff700;fill-opacity:1;stroke-width:2.91041"
       id="rect7514"
       width="55"
       height="55"
       x="-116"
       y="61"
       rx="11"
       ry="11"
       transform="scale(-1,1)" />
    <rect
       style="fill:#fff700;fill-opacity:1;stroke-width:2.91041"
       id="rect7516"
       width="55"
       height="55"
       x="-116"
       y="122"
       rx="11"
       ry="11"
       transform="scale(-1,1)" />
    <rect
       style="fill:#fff700;fill-opacity:1;stroke-width:2.91041"
       id="rect7518"
       width="55"
       height="55"
       x="-116"
       y="183"
       rx="11"
       ry="11"
       transform="scale(-1,1)" />
    <rect
       style="fill:#fff700;fill-opacity:1;stroke-width:2.91041"
       id="rect7520"
       width="55"
       height="55"
       x="-177"
       y="61"
       rx="11"
       ry="11"
       transform="scale(-1,1)" />
    <rect
       style="fill:#fff700;fill-opacity:1;stroke-width:2.91041"
       id="rect7522"
       width="55"
       height="55"
       x="-177"
       y="122"
       rx="11"
       ry="11"
       transform="scale(-1,1)" />
    <rect
       style="fill:#fff700;fill-opacity:1;stroke-width:2.91041"
       id="rect7524"
       width="55"
       height="55"
       x="-177"
       y="183"
       rx="11"
       ry="11"
       transform="scale(-1,1)" />
    <rect
       style="fill:#fff700;fill-opacity:1;stroke-width:2.91041"
       id="rect7526"
       width="55"
       height="55"
       x="-177"
       y="244"
       rx="11"
       ry="11"
       transform="scale(-1,1)" />
    <rect
       style="fill:#fff700;fill-opacity:1;stroke-width:2.91041"
       id="rect7528"
       width="55"
       height="55"
       x="-238"
       y="122"
       rx="11"
       ry="11"
       transform="scale(-1,1)" />
    <rect
       style="fill:#fff700;fill-opacity:1;stroke-width:2.91041"
       id="rect7530"
       width="55"
       height="55"
       x="-238"
       y="183"
       rx="11"
       ry="11"
       transform="scale(-1,1)" />
    <rect
       style="fill:#fff700;fill-opacity:1;stroke-width:2.91041"
       id="rect7532"
       width="55"
       height="55"
       x="-238"
       y="244"
       rx="11"
       ry="11"
       transform="scale(-1,1)" />
    <rect
       style="fill:#fff700;fill-opacity:1;stroke-width:2.91041"
       id="rect7534"
       width="55"
       height="55"
       x="-238"
       y="305"
       rx="11"
       ry="11"
       transform="scale(-1,1)" />
    <rect
       style="fill:#fff700;fill-opacity:1;stroke-width:2.91041"
       id="rect7536"
       width="55"
       height="55"
       x="-299"
       y="183"
       rx="11"
       ry="11"
       transform="scale(-1,1)" />
    <rect
       style="fill:#fff700;fill-opacity:1;stroke-width:2.91041"
       id="rect7538"
       width="55"
       height="55"
       x="-299"
       y="244"
       rx="11"
       ry="11"
       transform="scale(-1,1)" />
    <rect
       style="fill:#fff700;fill-opacity:1;stroke-width:2.91041"
       id="rect7540"
       width="55"
       height="55"
       x="-299"
       y="305"
       rx="11"
       ry="11"
       transform="scale(-1,1)" />
    <rect
       style="fill:#fff700;fill-opacity:1;stroke-width:2.91041"
       id="rect7542"
       width="55"
       height="55"
       x="-408"
       y="244"
       rx="11"
       ry="11"
       transform="scale(-1,1)" />
    <rect
       style="fill:#fff700;fill-opacity:1;stroke-width:2.91041"
       id="rect7544"
       width="55"
       height="55"
       x="-408"
       y="305"
       rx="11"
       ry="11"
       transform="scale(-1,1)" />
    <rect
       style="fill:#fff700;fill-opacity:1;stroke-width:2.91041"
       id="rect7546"
       width="55"
       height="55"
       x="-469"
       y="305"
       rx="11"
       ry="11"
       transform="scale(-1,1)" />
    <rect
       style="fill:#fff700;fill-opacity:1;stroke-width:2.91041"
       id="rect7590"
       width="55"
       height="55"
       x="950"
       y="0"
       rx="11"
       ry="11" />
    <rect
       style="fill:#fff700;fill-opacity:1;stroke-width:2.91041"
       id="rect7592"
       width="55"
       height="55"
       x="950"
       y="61"
       rx="11"
       ry="11" />
    <rect
       style="fill:#fff700;fill-opacity:1;stroke-width:2.91041"
       id="rect7594"
       width="55"
       height="55"
       x="950"
       y="122"
       rx="11"
       ry="11" />
    <rect
       style="fill:#fff700;fill-opacity:1;stroke-width:2.91041"
       id="rect7596"
       width="55"
       height="55"
       x="889"
       y="0"
       rx="11"
       ry="11" />
    <rect
       style="fill:#fff700;fill-opacity:1;stroke-width:2.91041"
       id="rect7598"
       width="55"
       height="55"
       x="889"
       y="61"
       rx="11"
       ry="11" />
    <rect
       style="fill:#fff700;fill-opacity:1;stroke-width:2.91041"
       id="rect7600"
       width="55"
       height="55"
       x="889"
       y="122"
       rx="11"
       ry="11" />
    <rect
       style="fill:#fff700;fill-opacity:1;stroke-width:2.91041"
       id="rect7602"
       width="55"
       height="55"
       x="889"
       y="183"
       rx="11"
       ry="11" />
    <rect
       style="fill:#fff700;fill-opacity:1;stroke-width:2.91041"
       id="rect7604"
       width="55"
       height="55"
       x="828"
       y="61"
       rx="11"
       ry="11" />
    <rect
       style="fill:#fff700;fill-opacity:1;stroke-width:2.91041"
       id="rect7606"
       width="55"
       height="55"
       x="828"
       y="122"
       rx="11"
       ry="11" />
    <rect
       style="fill:#fff700;fill-opacity:1;stroke-width:2.91041"
       id="rect7608"
       width="55"
       height="55"
       x="828"
       y="183"
       rx="11"
       ry="11" />
    <rect
       style="fill:#fff700;fill-opacity:1;stroke-width:2.91041"
       id="rect7610"
       width="55"
       height="55"
       x="828"
       y="244"
       rx="11"
       ry="11" />
    <rect
       style="fill:#fff700;fill-opacity:1;stroke-width:2.91041"
       id="rect7612"
       width="55"
       height="55"
       x="767"
       y="122"
       rx="11"
       ry="11" />
    <rect
       style="fill:#fff700;fill-opacity:1;stroke-width:2.91041"
       id="rect7614"
       width="55"
       height="55"
       x="767"
       y="183"
       rx="11"
       ry="11" />
    <rect
       style="fill:#fff700;fill-opacity:1;stroke-width:2.91041"
       id="rect7616"
       width="55"
       height="55"
       x="767"
       y="244"
       rx="11"
       ry="11" />
    <rect
       style="fill:#fff700;fill-opacity:1;stroke-width:2.91041"
       id="rect7618"
       width="55"
       height="55"
       x="767"
       y="305"
       rx="11"
       ry="11" />
    <rect
       style="fill:#fff700;fill-opacity:1;stroke-width:2.91041"
       id="rect7620"
       width="55"
       height="55"
       x="706"
       y="183"
       rx="11"
       ry="11" />
    <rect
       style="fill:#fff700;fill-opacity:1;stroke-width:2.91041"
       id="rect7622"
       width="55"
       height="55"
       x="706"
       y="244"
       rx="11"
       ry="11" />
    <rect
       style="fill:#fff700;fill-opacity:1;stroke-width:2.91041"
       id="rect7624"
       width="55"
       height="55"
       x="706"
       y="305"
       rx="11"
       ry="11" />
    <rect
       style="fill:#fff700;fill-opacity:1;stroke-width:2.91041"
       id="rect7626"
       width="55"
       height="55"
       x="597"
       y="244"
       rx="11"
       ry="11" />
    <rect
       style="fill:#fff700;fill-opacity:1;stroke-width:2.91041"
       id="rect7628"
       width="55"
       height="55"
       x="597"
       y="305"
       rx="11"
       ry="11" />
    <rect
       style="fill:#fff700;fill-opacity:1;stroke-width:2.91041"
       id="rect7630"
       width="55"
       height="55"
       x="536"
       y="305"
       rx="11"
       ry="11" />
    <rect
       style="fill:#fff700;fill-opacity:1;stroke-width:2.91041"
       id="rect7632"
       width="55"
       height="55"
       x="-55"
       y="-1371"
       rx="11"
       ry="11"
       transform="scale(-1)" />
    <rect
       style="fill:#fff700;fill-opacity:1;stroke-width:2.91041"
       id="rect7634"
       width="55"
       height="55"
       x="-55"
       y="-1310"
       rx="11"
       ry="11"
       transform="scale(-1)" />
    <rect
       style="fill:#fff700;fill-opacity:1;stroke-width:2.91041"
       id="rect7636"
       width="55"
       height="55"
       x="-55"
       y="-1249"
       rx="11"
       ry="11"
       transform="scale(-1)" />
    <rect
       style="fill:#fff700;fill-opacity:1;stroke-width:2.91041"
       id="rect7638"
       width="55"
       height="55"
       x="-116"
       y="-1371"
       rx="11"
       ry="11"
       transform="scale(-1)" />
    <rect
       style="fill:#fff700;fill-opacity:1;stroke-width:2.91041"
       id="rect7640"
       width="55"
       height="55"
       x="-116"
       y="-1310"
       rx="11"
       ry="11"
       transform="scale(-1)" />
    <rect
       style="fill:#fff700;fill-opacity:1;stroke-width:2.91041"
       id="rect7642"
       width="55"
       height="55"
       x="-116"
       y="-1249"
       rx="11"
       ry="11"
       transform="scale(-1)" />
    <rect
       style="fill:#fff700;fill-opacity:1;stroke-width:2.91041"
       id="rect7644"
       width="55"
       height="55"
       x="-116"
       y="-1188"
       rx="11"
       ry="11"
       transform="scale(-1)" />
    <rect
       style="fill:#fff700;fill-opacity:1;stroke-width:2.91041"
       id="rect7646"
       width="55"
       height="55"
       x="-177"
       y="-1310"
       rx="11"
       ry="11"
       transform="scale(-1)" />
    <rect
       style="fill:#fff700;fill-opacity:1;stroke-width:2.91041"
       id="rect7648"
       width="55"
       height="55"
       x="-177"
       y="-1249"
       rx="11"
       ry="11"
       transform="scale(-1)" />
    <rect
       style="fill:#fff700;fill-opacity:1;stroke-width:2.91041"
       id="rect7650"
       width="55"
       height="55"
       x="-177"
       y="-1188"
       rx="11"
       ry="11"
       transform="scale(-1)" />
    <rect
       style="fill:#fff700;fill-opacity:1;stroke-width:2.91041"
       id="rect7652"
       width="55"
       height="55"
       x="-177"
       y="-1127"
       rx="11"
       ry="11"
       transform="scale(-1)" />
    <rect
       style="fill:#fff700;fill-opacity:1;stroke-width:2.91041"
       id="rect7654"
       width="55"
       height="55"
       x="-238"
       y="-1249"
       rx="11"
       ry="11"
       transform="scale(-1)" />
    <rect
       style="fill:#fff700;fill-opacity:1;stroke-width:2.91041"
       id="rect7656"
       width="55"
       height="55"
       x="-238"
       y="-1188"
       rx="11"
       ry="11"
       transform="scale(-1)" />
    <rect
       style="fill:#fff700;fill-opacity:1;stroke-width:2.91041"
       id="rect7658"
       width="55"
       height="55"
       x="-238"
       y="-1127"
       rx="11"
       ry="11"
       transform="scale(-1)" />
    <rect
       style="fill:#fff700;fill-opacity:1;stroke-width:2.91041"
       id="rect7660"
       width="55"
       height="55"
       x="-238"
       y="-1066"
       rx="11"
       ry="11"
       transform="scale(-1)" />
    <rect
       style="fill:#fff700;fill-opacity:1;stroke-width:2.91041"
       id="rect7662"
       width="55"
       height="55"
       x="-299"
       y="-1188"
       rx="11"
       ry="11"
       transform="scale(-1)" />
    <rect
       style="fill:#fff700;fill-opacity:1;stroke-width:2.91041"
       id="rect7664"
       width="55"
       height="55"
       x="-299"
       y="-1127"
       rx="11"
       ry="11"
       transform="scale(-1)" />
    <rect
       style="fill:#fff700;fill-opacity:1;stroke-width:2.91041"
       id="rect7666"
       width="55"
       height="55"
       x="-299"
       y="-1066"
       rx="11"
       ry="11"
       transform="scale(-1)" />
    <rect
       style="fill:#fff700;fill-opacity:1;stroke-width:2.91041"
       id="rect7668"
       width="55"
       height="55"
       x="-408"
       y="-1127"
       rx="11"
       ry="11"
       transform="scale(-1)" />
    <rect
       style="fill:#fff700;fill-opacity:1;stroke-width:2.91041"
       id="rect7670"
       width="55"
       height="55"
       x="-408"
       y="-1066"
       rx="11"
       ry="11"
       transform="scale(-1)" />
    <rect
       style="fill:#fff700;fill-opacity:1;stroke-width:2.91041"
       id="rect7672"
       width="55"
       height="55"
       x="-469"
       y="-1066"
       rx="11"
       ry="11"
       transform="scale(-1)" />
    <rect
       style="fill:#fff700;fill-opacity:1;stroke-width:2.91041"
       id="rect7674"
       width="55"
       height="55"
       x="950"
       y="-1371"
       rx="11"
       ry="11"
       transform="scale(1,-1)" />
    <rect
       style="fill:#fff700;fill-opacity:1;stroke-width:2.91041"
       id="rect7676"
       width="55"
       height="55"
       x="950"
       y="-1310"
       rx="11"
       ry="11"
       transform="scale(1,-1)" />
    <rect
       style="fill:#fff700;fill-opacity:1;stroke-width:2.91041"
       id="rect7678"
       width="55"
       height="55"
       x="950"
       y="-1249"
       rx="11"
       ry="11"
       transform="scale(1,-1)" />
    <rect
       style="fill:#fff700;fill-opacity:1;stroke-width:2.91041"
       id="rect7680"
       width="55"
       height="55"
       x="889"
       y="-1371"
       rx="11"
       ry="11"
       transform="scale(1,-1)" />
    <rect
       style="fill:#fff700;fill-opacity:1;stroke-width:2.91041"
       id="rect7682"
       width="55"
       height="55"
       x="889"
       y="-1310"
       rx="11"
       ry="11"
       transform="scale(1,-1)" />
    <rect
       style="fill:#fff700;fill-opacity:1;stroke-width:2.91041"
       id="rect7684"
       width="55"
       height="55"
       x="889"
       y="-1249"
       rx="11"
       ry="11"
       transform="scale(1,-1)" />
    <rect
       style="fill:#fff700;fill-opacity:1;stroke-width:2.91041"
       id="rect7686"
       width="55"
       height="55"
       x="889"
       y="-1188"
       rx="11"
       ry="11"
       transform="scale(1,-1)" />
    <rect
       style="fill:#fff700;fill-opacity:1;stroke-width:2.91041"
       id="rect7688"
       width="55"
       height="55"
       x="828"
       y="-1310"
       rx="11"
       ry="11"
       transform="scale(1,-1)" />
    <rect
       style="fill:#fff700;fill-opacity:1;stroke-width:2.91041"
       id="rect7690"
       width="55"
       height="55"
       x="828"
       y="-1249"
       rx="11"
       ry="11"
       transform="scale(1,-1)" />
    <rect
       style="fill:#fff700;fill-opacity:1;stroke-width:2.91041"
       id="rect7692"
       width="55"
       height="55"
       x="828"
       y="-1188"
       rx="11"
       ry="11"
       transform="scale(1,-1)" />
    <rect
       style="fill:#fff700;fill-opacity:1;stroke-width:2.91041"
       id="rect7694"
       width="55"
       height="55"
       x="828"
       y="-1127"
       rx="11"
       ry="11"
       transform="scale(1,-1)" />
    <rect
       style="fill:#fff700;fill-opacity:1;stroke-width:2.91041"
       id="rect7696"
       width="55"
       height="55"
       x="767"
       y="-1249"
       rx="11"
       ry="11"
       transform="scale(1,-1)" />
    <rect
       style="fill:#fff700;fill-opacity:1;stroke-width:2.91041"
       id="rect7698"
       width="55"
       height="55"
       x="767"
       y="-1188"
       rx="11"
       ry="11"
       transform="scale(1,-1)" />
    <rect
       style="fill:#fff700;fill-opacity:1;stroke-width:2.91041"
       id="rect7700"
       width="55"
       height="55"
       x="767"
       y="-1127"
       rx="11"
       ry="11"
       transform="scale(1,-1)" />
    <rect
       style="fill:#fff700;fill-opacity:1;stroke-width:2.91041"
       id="rect7702"
       width="55"
       height="55"
       x="767"
       y="-1066"
       rx="11"
       ry="11"
       transform="scale(1,-1)" />
    <rect
       style="fill:#fff700;fill-opacity:1;stroke-width:2.91041"
       id="rect7704"
       width="55"
       height="55"
       x="706"
       y="-1188"
       rx="11"
       ry="11"
       transform="scale(1,-1)" />
    <rect
       style="fill:#fff700;fill-opacity:1;stroke-width:2.91041"
       id="rect7706"
       width="55"
       height="55"
       x="706"
       y="-1127"
       rx="11"
       ry="11"
       transform="scale(1,-1)" />
    <rect
       style="fill:#fff700;fill-opacity:1;stroke-width:2.91041"
       id="rect7708"
       width="55"
       height="55"
       x="706"
       y="-1066"
       rx="11"
       ry="11"
       transform="scale(1,-1)" />
    <rect
       style="fill:#fff700;fill-opacity:1;stroke-width:2.91041"
       id="rect7710"
       width="55"
       height="55"
       x="597"
       y="-1127"
       rx="11"
       ry="11"
       transform="scale(1,-1)" />
    <rect
       style="fill:#fff700;fill-opacity:1;stroke-width:2.91041"
       id="rect7712"
       width="55"
       height="55"
       x="597"
       y="-1066"
       rx="11"
       ry="11"
       transform="scale(1,-1)" />
    <rect
       style="fill:#fff700;fill-opacity:1;stroke-width:2.91041"
       id="rect7714"
       width="55"
       height="55"
       x="536"
       y="-1066"
       rx="11"
       ry="11"
       transform="scale(1,-1)" />
    <rect
       style="fill:#fff700;fill-opacity:1;stroke-width:2.91041"
       id="rect864-2"
       width="55"
       height="55"
       x="475"
       y="475"
       rx="11"
       ry="11" />
    <rect
       style="fill:#fff700;fill-opacity:1;stroke-width:2.91041"
       id="rect1331"
       width="55"
       height="55"
       x="475"
       y="536"
       rx="11"
       ry="11" />
    <rect
       style="fill:#fff700;fill-opacity:1;stroke-width:2.91041"
       id="rect1333"
       width="55"
       height="55"
       x="475"
       y="597"
       rx="11"
       ry="11" />
    <rect
       style="fill:#fff700;fill-opacity:1;stroke-width:2.91041"
       id="rect1335"
       width="55"
       height="55"
       x="475"
       y="658"
       rx="11"
       ry="11" />
    <rect
       style="fill:#fff700;fill-opacity:1;stroke-width:2.91041"
       id="rect1337"
       width="55"
       height="55"
       x="475"
       y="719"
       rx="11"
       ry="11" />
    <rect
       style="fill:#fff700;fill-opacity:1;stroke-width:2.91041"
       id="rect1339"
       width="55"
       height="55"
       x="475"
       y="780"
       rx="11"
       ry="11" />
    <rect
       style="fill:#fff700;fill-opacity:1;stroke-width:2.91041"
       id="rect1341"
       width="55"
       height="55"
       x="475"
       y="841"
       rx="11"
       ry="11" />
    <rect
       style="fill:#fff700;fill-opacity:1;stroke-width:2.91041"
       id="rect1343"
       width="55"
       height="55"
       x="414"
       y="475"
       rx="11"
       ry="11" />
    <rect
       style="fill:#fff700;fill-opacity:1;stroke-width:2.91041"
       id="rect1345"
       width="55"
       height="55"
       x="414"
       y="536"
       rx="11"
       ry="11" />
    <rect
       style="fill:#fff700;fill-opacity:1;stroke-width:2.91041"
       id="rect1347"
       width="55"
       height="55"
       x="414"
       y="597"
       rx="11"
       ry="11" />
    <rect
       style="fill:#fff700;fill-opacity:1;stroke-width:2.91041"
       id="rect1349"
       width="55"
       height="55"
       x="414"
       y="719"
       rx="11"
       ry="11" />
    <rect
       style="fill:#fff700;fill-opacity:1;stroke-width:2.91041"
       id="rect1351"
       width="55"
       height="55"
       x="414"
       y="780"
       rx="11"
       ry="11" />
    <rect
       style="fill:#fff700;fill-opacity:1;stroke-width:2.91041"
       id="rect1353"
       width="55"
       height="55"
       x="414"
       y="841"
       rx="11"
       ry="11" />
    <rect
       style="fill:#fff700;fill-opacity:1;stroke-width:2.91041"
       id="rect1355"
       width="55"
       height="55"
       x="353"
       y="475"
       rx="11"
       ry="11" />
    <rect
       style="fill:#fff700;fill-opacity:1;stroke-width:2.91041"
       id="rect1357"
       width="55"
       height="55"
       x="353"
       y="536"
       rx="11"
       ry="11" />
    <rect
       style="fill:#fff700;fill-opacity:1;stroke-width:2.91041"
       id="rect1359"
       width="55"
       height="55"
       x="353"
       y="780"
       rx="11"
       ry="11" />
    <rect
       style="fill:#fff700;fill-opacity:1;stroke-width:2.91041"
       id="rect1361"
       width="55"
       height="55"
       x="353"
       y="841"
       rx="11"
       ry="11" />
    <rect
       style="fill:#fff700;fill-opacity:1;stroke-width:2.91041"
       id="rect1363"
       width="55"
       height="55"
       x="534"
       y="475"
       rx="11"
       ry="11" />
    <rect
       style="fill:#fff700;fill-opacity:1;stroke-width:2.91041"
       id="rect1365"
       width="55"
       height="55"
       x="534"
       y="536"
       rx="11"
       ry="11" />
    <rect
       style="fill:#fff700;fill-opacity:1;stroke-width:2.91041"
       id="rect1367"
       width="55"
       height="55"
       x="534"
       y="597"
       rx="11"
       ry="11" />
    <rect
       style="fill:#fff700;fill-opacity:1;stroke-width:2.91041"
       id="rect1369"
       width="55"
       height="55"
       x="534"
       y="719"
       rx="11"
       ry="11" />
    <rect
       style="fill:#fff700;fill-opacity:1;stroke-width:2.91041"
       id="rect1371"
       width="55"
       height="55"
       x="534"
       y="780"
       rx="11"
       ry="11" />
    <rect
       style="fill:#fff700;fill-opacity:1;stroke-width:2.91041"
       id="rect1373"
       width="55"
       height="55"
       x="534"
       y="841"
       rx="11"
       ry="11" />
    <rect
       style="fill:#fff700;fill-opacity:1;stroke-width:2.91041"
       id="rect1375"
       width="55"
       height="55"
       x="595"
       y="475"
       rx="11"
       ry="11" />
    <rect
       style="fill:#fff700;fill-opacity:1;stroke-width:2.91041"
       id="rect1377"
       width="55"
       height="55"
       x="595"
       y="536"
       rx="11"
       ry="11" />
    <rect
       style="fill:#fff700;fill-opacity:1;stroke-width:2.91041"
       id="rect1379"
       width="55"
       height="55"
       x="595"
       y="780"
       rx="11"
       ry="11" />
    <rect
       style="fill:#fff700;fill-opacity:1;stroke-width:2.91041"
       id="rect1381"
       width="55"
       height="55"
       x="595"
       y="841"
       rx="11"
       ry="11" />
  </g>
</svg>
